<svg xmlns="http://www.w3.org/2000/svg" width="235.796" height="147.744" viewBox="0 0 235.796 147.744">
  <g id="그룹_6" data-name="그룹 6" transform="translate(-90.204 -184.471)">
    <path id="패스_23" data-name="패스 23" d="M436.361,690.681H237.67a6.662,6.662,0,0,1-6.662-6.662h0q108.038-12.556,212.015,0h0A6.662,6.662,0,0,1,436.361,690.681Z" transform="translate(-121.271 -358.467)" fill="#ccc"/>
    <path id="패스_24" data-name="패스 24" d="M443.022,315.366l-212.014-.392,24.572-41.345.118-.2V182.314a8.421,8.421,0,0,1,8.423-8.422H408.736a8.421,8.421,0,0,1,8.422,8.423v91.746Z" transform="translate(-121.271 10.578)" fill="#e6e6e6"/>
    <path id="패스_25" data-name="패스 25" d="M346.538,195.864a2.746,2.746,0,0,0-2.743,2.743v83.082a2.747,2.747,0,0,0,2.743,2.743H492.715a2.747,2.747,0,0,0,2.743-2.743V198.607a2.746,2.746,0,0,0-2.743-2.743Z" transform="translate(-203.881 -5.515)" fill="#fff"/>
    <path id="패스_26" data-name="패스 26" d="M333.693,567.913a1.179,1.179,0,0,0-1.068.684l-7.571,16.46a1.176,1.176,0,0,0,1.068,1.667H485.342a1.176,1.176,0,0,0,1.051-1.7l-8.23-16.46a1.17,1.17,0,0,0-1.051-.65Z" transform="translate(-190.075 -278.023)" fill="#ccc"/>
    <circle id="타원_7" data-name="타원 7" cx="1.764" cy="1.764" r="1.764" transform="translate(213.393 185.45)" fill="#fff"/>
    <path id="패스_27" data-name="패스 27" d="M558.116,649.94a1.178,1.178,0,0,0-1.135.87l-1.9,7.054a1.176,1.176,0,0,0,1.135,1.481h36.118a1.175,1.175,0,0,0,1.111-1.56L591,650.731a1.176,1.176,0,0,0-1.111-.791Z" transform="translate(-358.609 -338.104)" fill="#ccc"/>
    <path id="패스_28" data-name="패스 28" d="M323.747,366.922v1.568H162.169l.121-.2v-1.372Z" transform="translate(-27.86 -84.282)" fill="#ccc"/>
    <path id="패스_29" data-name="패스 29" d="M850.177,554.237a.287.287,0,0,0-.276.212l-.462,1.718a.286.286,0,0,0,.276.361h8.8a.286.286,0,0,0,.271-.38l-.595-1.718a.286.286,0,0,0-.271-.193Z" transform="translate(-574.234 -268.006)" fill="#ccc"/>
    <path id="패스_30" data-name="패스 30" d="M802.177,554.237a.287.287,0,0,0-.276.212l-.462,1.718a.286.286,0,0,0,.276.361h8.8a.286.286,0,0,0,.271-.38l-.595-1.718a.286.286,0,0,0-.271-.193Z" transform="translate(-539.076 -268.006)" fill="#ccc"/>
    <path id="패스_31" data-name="패스 31" d="M613.579,342.784h.689l-1.379-92.141H612.2l.027,1.838h-15.45l.027-1.838h-.689l-1.379,92.141h.689l.089-5.974H613.49Zm-.994-66.406H596.42l.168-11.259h15.828Zm.01.689.168,11.259H596.242l.168-11.259Zm.179,11.948.168,11.259h-16.88l.168-11.259Zm.179,11.948.168,11.259H595.884l.168-11.259Zm.179,11.948.168,11.259h-17.6l.168-11.259Zm-.894-59.742.168,11.259H596.6l.168-11.259Zm-16.712,82.949.168-11.259h17.616l.168,11.259Z" transform="translate(-387.685 -45.639)" fill="#3f3d56"/>
    <circle id="타원_8" data-name="타원 8" cx="11.24" cy="11.24" r="11.24" transform="translate(202.163 214.261)" fill="#2f2e41"/>
    <rect id="사각형_4" data-name="사각형 4" width="3.415" height="6.118" transform="translate(216.655 233.878) rotate(-10.261)" fill="#2f2e41"/>
    <rect id="사각형_5" data-name="사각형 5" width="3.415" height="6.118" transform="translate(209.935 235.095) rotate(-10.261)" fill="#2f2e41"/>
    <ellipse id="타원_9" data-name="타원 9" cx="2.846" cy="1.067" rx="2.846" ry="1.067" transform="matrix(0.763, -0.646, 0.646, 0.763, 209.257, 242.592)" fill="#2f2e41"/>
    <ellipse id="타원_10" data-name="타원 10" cx="2.846" cy="1.067" rx="2.846" ry="1.067" transform="matrix(0.763, -0.646, 0.646, 0.763, 215.838, 241.401)" fill="#2f2e41"/>
    <circle id="타원_11" data-name="타원 11" cx="3.842" cy="3.842" r="3.842" transform="translate(208.775 218.91)" fill="#fff"/>
    <circle id="타원_12" data-name="타원 12" cx="1.281" cy="1.281" r="1.281" transform="translate(209.757 220.094)" fill="#3f3d56"/>
    <path id="패스_32" data-name="패스 32" d="M606.062,259.972c.169-4.161-3.417-7.686-8.011-7.873s-8.454,3.036-8.623,7.2,3.024,5.107,7.617,5.293S605.893,264.133,606.062,259.972Z" transform="translate(-383.792 -46.699)" fill="#6c63ff"/>
    <ellipse id="타원_13" data-name="타원 13" cx="1.764" cy="5.62" rx="1.764" ry="5.62" transform="matrix(0.223, -0.975, 0.975, 0.223, 197.152, 223.917)" fill="#2f2e41"/>
    <ellipse id="타원_14" data-name="타원 14" cx="1.764" cy="5.62" rx="1.764" ry="5.62" transform="matrix(0.223, -0.975, 0.975, 0.223, 219.216, 227.587)" fill="#2f2e41"/>
    <path id="패스_33" data-name="패스 33" d="M616.114,340.151a2.561,2.561,0,0,1-5.039.917v0c-.252-1.392.824-1.884,2.216-2.136S615.862,338.76,616.114,340.151Z" transform="translate(-399.623 -110.22)" fill="#fff"/>
    <ellipse id="타원_15" data-name="타원 15" cx="5.761" cy="1.809" rx="5.761" ry="1.809" transform="matrix(0.357, -0.934, 0.934, 0.357, 169.897, 267.768)" fill="#2f2e41"/>
    <circle id="타원_16" data-name="타원 16" cx="11.523" cy="11.523" r="11.523" transform="translate(149.773 281.26) rotate(-80.783)" fill="#2f2e41"/>
    <rect id="사각형_6" data-name="사각형 6" width="3.501" height="6.272" transform="translate(157.742 280.776)" fill="#2f2e41"/>
    <rect id="사각형_7" data-name="사각형 7" width="3.501" height="6.272" transform="translate(164.743 280.776)" fill="#2f2e41"/>
    <ellipse id="타원_17" data-name="타원 17" cx="2.917" cy="1.094" rx="2.917" ry="1.094" transform="translate(157.742 286.027)" fill="#2f2e41"/>
    <ellipse id="타원_18" data-name="타원 18" cx="2.917" cy="1.094" rx="2.917" ry="1.094" transform="translate(164.743 285.881)" fill="#2f2e41"/>
    <path id="패스_34" data-name="패스 34" d="M387.816,433.629c-.93-4.167,2.044-8.377,6.643-9.4s9.082,1.518,10.012,5.685-2.118,5.7-6.717,6.73S388.746,437.8,387.816,433.629Z" transform="translate(-236 -172.612)" fill="#6c63ff"/>
    <ellipse id="타원_19" data-name="타원 19" cx="1.809" cy="5.761" rx="1.809" ry="5.761" transform="translate(144.034 265.552) rotate(-64.626)" fill="#2f2e41"/>
    <circle id="타원_20" data-name="타원 20" cx="11.523" cy="11.523" r="11.523" transform="translate(101.579 271.878)" fill="#2f2e41"/>
    <rect id="사각형_8" data-name="사각형 8" width="3.501" height="6.272" transform="translate(107.85 292.443)" fill="#2f2e41"/>
    <rect id="사각형_9" data-name="사각형 9" width="3.501" height="6.272" transform="translate(114.851 292.443)" fill="#2f2e41"/>
    <ellipse id="타원_21" data-name="타원 21" cx="2.917" cy="1.094" rx="2.917" ry="1.094" transform="translate(107.85 297.694)" fill="#2f2e41"/>
    <ellipse id="타원_22" data-name="타원 22" cx="2.917" cy="1.094" rx="2.917" ry="1.094" transform="translate(114.851 297.548)" fill="#2f2e41"/>
    <circle id="타원_23" data-name="타원 23" cx="3.938" cy="3.938" r="3.938" transform="translate(109.455 276.545)" fill="#fff"/>
    <circle id="타원_24" data-name="타원 24" cx="1.313" cy="1.313" r="1.313" transform="translate(112.08 279.17)" fill="#3f3d56"/>
    <path id="패스_35" data-name="패스 35" d="M201.338,477.236c-.93-4.167,2.044-8.377,6.643-9.4s9.082,1.518,10.012,5.685-2.118,5.7-6.717,6.73S202.268,481.4,201.338,477.236Z" transform="translate(-99.414 -204.552)" fill="#e6e6e6"/>
    <ellipse id="타원_25" data-name="타원 25" cx="5.761" cy="1.809" rx="5.761" ry="1.809" transform="matrix(0.357, -0.934, 0.934, 0.357, 116.067, 246.326)" fill="#2f2e41"/>
    <circle id="타원_26" data-name="타원 26" cx="11.523" cy="11.523" r="11.523" transform="translate(95.944 259.819) rotate(-80.783)" fill="#2f2e41"/>
    <rect id="사각형_10" data-name="사각형 10" width="3.501" height="6.272" transform="translate(103.912 259.334)" fill="#2f2e41"/>
    <rect id="사각형_11" data-name="사각형 11" width="3.501" height="6.272" transform="translate(110.913 259.334)" fill="#2f2e41"/>
    <ellipse id="타원_27" data-name="타원 27" cx="2.917" cy="1.094" rx="2.917" ry="1.094" transform="translate(103.912 264.585)" fill="#2f2e41"/>
    <ellipse id="타원_28" data-name="타원 28" cx="2.917" cy="1.094" rx="2.917" ry="1.094" transform="translate(110.913 264.439)" fill="#2f2e41"/>
    <circle id="타원_29" data-name="타원 29" cx="3.938" cy="3.938" r="3.938" transform="translate(105.517 243.436)" fill="#fff"/>
    <circle id="타원_30" data-name="타원 30" cx="1.313" cy="1.313" r="1.313" transform="translate(108.142 246.061)" fill="#3f3d56"/>
    <path id="패스_36" data-name="패스 36" d="M186.619,353.486c-.93-4.167,2.044-8.377,6.643-9.4s9.082,1.518,10.012,5.685-2.118,5.7-6.717,6.73S187.549,357.653,186.619,353.486Z" transform="translate(-88.633 -113.911)" fill="#6c63ff"/>
    <ellipse id="타원_31" data-name="타원 31" cx="1.809" cy="5.761" rx="1.809" ry="5.761" transform="translate(90.204 244.11) rotate(-64.626)" fill="#2f2e41"/>
    <path id="패스_37" data-name="패스 37" d="M207.707,431.614c0,1.128,2.9,3.355,6.126,3.355s6.243-3.175,6.243-4.3-3.021.219-6.243.219S207.707,430.486,207.707,431.614Z" transform="translate(-104.204 -177.166)" fill="#fff"/>
    <path id="패스_38" data-name="패스 38" d="M269.007,255.461a.8.8,0,0,0-.8.8V289.44a.8.8,0,0,0,.8.8h76.786a.8.8,0,0,0,.8-.8V256.264a.8.8,0,0,0-.8-.8Z" transform="translate(-148.515 -49.167)" fill="#6c63ff"/>
    <circle id="타원_32" data-name="타원 32" cx="7.791" cy="7.791" r="7.791" transform="translate(133.434 215.894)" fill="#fff"/>
    <path id="Path_40" data-name="Path 40" d="M411.929,316.587a.911.911,0,1,0,0,1.822h24.6a.911.911,0,0,0,.03-1.822h-24.63Z" transform="translate(-253.119 -93.938)" fill="#fff"/>
    <path id="Path_40-2" data-name="Path 40" d="M411.929,296.86a.911.911,0,1,0,0,1.822h12.285a.911.911,0,1,0,.03-1.822H411.929Z" transform="translate(-253.119 -79.489)" fill="#fff"/>
    <path id="Path_40-3" data-name="Path 40" d="M411.929,337.253a.911.911,0,1,0,0,1.822h24.6a.911.911,0,0,0,.03-1.822h-24.63Z" transform="translate(-253.119 -109.075)" fill="#fff"/>
    <ellipse id="타원_33" data-name="타원 33" cx="1.809" cy="5.761" rx="1.809" ry="5.761" transform="matrix(0.934, -0.357, 0.357, 0.934, 272.479, 279.425)" fill="#2f2e41"/>
    <circle id="타원_34" data-name="타원 34" cx="11.523" cy="11.523" r="11.523" transform="translate(271.249 285.744) rotate(-9.217)" fill="#2f2e41"/>
    <path id="패스_39" data-name="패스 39" d="M733.452,447.932h-3.5l.685,7.511,2.821-.767Z" transform="translate(-443.733 -143.618)" fill="#2f2e41"/>
    <path id="패스_40" data-name="패스 40" d="M704.929,448.005h-3.5l.685,7.511,2.694-.786Z" transform="translate(-422.841 -143.671)" fill="#2f2e41"/>
    <ellipse id="타원_35" data-name="타원 35" cx="2.917" cy="1.094" rx="2.917" ry="1.094" transform="translate(276.104 310.228) rotate(-4.182)" fill="#2f2e41"/>
    <circle id="타원_36" data-name="타원 36" cx="3.938" cy="3.938" r="3.938" transform="translate(280.239 288.416)" fill="#fff"/>
    <circle id="타원_37" data-name="타원 37" cx="1.313" cy="1.313" r="1.313" transform="translate(282.864 291.041)" fill="#3f3d56"/>
    <ellipse id="타원_38" data-name="타원 38" cx="5.761" cy="1.809" rx="5.761" ry="1.809" transform="translate(291.765 290.809) rotate(-53.55)" fill="#2f2e41"/>
    <path id="패스_41" data-name="패스 41" d="M863.077,602.662c0-.929,2.393-2.765,5.049-2.765s5.146,2.617,5.146,3.546-2.49-.18-5.146-.18S863.077,603.591,863.077,602.662Z" transform="translate(-584.231 -301.45)" fill="#fff"/>
    <path id="패스_42" data-name="패스 42" d="M827.762,378.267l-63.074-8.744a1.875,1.875,0,0,1-1.6-2.112l7.091-51.148a1.875,1.875,0,0,1,2.112-1.6l63.073,8.744a1.875,1.875,0,0,1,1.6,2.112l-7.091,51.148a1.875,1.875,0,0,1-2.111,1.6Z" transform="translate(-510.982 -92.518)" fill="#6c63ff"/>
    <rect id="사각형_12" data-name="사각형 12" width="5.886" height="5.886" transform="translate(262.387 226.079) rotate(7.893)" fill="#3f3d56"/>
    <path id="패스_46" data-name="패스 46" d="M879.813,521.605c.93-4.167-2.044-8.377-6.643-9.4s-9.082,1.518-10.012,5.685,2.118,5.7,6.717,6.73S878.882,525.772,879.813,521.605Z" transform="translate(-584.167 -237.05)" fill="#f2f2f2"/>
    <ellipse id="타원_40" data-name="타원 40" cx="2.917" cy="1.094" rx="2.917" ry="1.094" transform="translate(283.781 310.21) rotate(-4.182)" fill="#2f2e41"/>
    <path id="Icon_awesome-check-circle" data-name="Icon awesome-check-circle" d="M14.532,7.547A6.985,6.985,0,1,1,7.547.563,6.985,6.985,0,0,1,14.532,7.547Zm-7.793,3.7,5.182-5.182a.451.451,0,0,0,0-.637l-.637-.637a.451.451,0,0,0-.637,0L6.421,9.015,4.448,7.042a.451.451,0,0,0-.637,0l-.637.637a.451.451,0,0,0,0,.637L6.1,11.246A.451.451,0,0,0,6.74,11.246Z" transform="translate(133.611 216.141)" fill="#3ed489"/>
    <circle id="타원_41" data-name="타원 41" cx="7.791" cy="7.791" r="7.791" transform="translate(301.52 264.9)" fill="#fff"/>
    <path id="Path_40-4" data-name="Path 40" d="M411.929,316.587a.911.911,0,1,0,0,1.822h24.6a.911.911,0,0,0,.03-1.822h-24.63Z" transform="translate(-101.667 -134.929) rotate(8)" fill="#fff"/>
    <path id="Path_40-5" data-name="Path 40" d="M411.929,316.587a.911.911,0,1,0,0,1.822h24.6a.911.911,0,0,0,.03-1.822h-24.63Z" transform="translate(-103.822 -114.892) rotate(8)" fill="#fff"/>
    <path id="합치기_1" data-name="합치기 1" d="M147.511-87.178h-39.6a.911.911,0,0,1-.911-.912.911.911,0,0,1,.911-.911h39.63a.912.912,0,0,1,.9.926.912.912,0,0,1-.911.9Z" transform="translate(142.584 314.334) rotate(8)" fill="#fff"/>
    <path id="합치기_3" data-name="합치기 3" d="M147.511-87.178h-39.6a.911.911,0,0,1-.911-.912.911.911,0,0,1,.911-.911h39.63a.912.912,0,0,1,.9.926.912.912,0,0,1-.911.9Z" transform="translate(140.43 334.371) rotate(8)" fill="#fff"/>
    <path id="합치기_2" data-name="합치기 2" d="M147.511-87.178h-39.6a.911.911,0,0,1-.911-.912.911.911,0,0,1,.911-.911h39.63a.912.912,0,0,1,.9.926.912.912,0,0,1-.911.9Z" transform="translate(141.901 319.618) rotate(8)" fill="#fff"/>
    <path id="합치기_4" data-name="합치기 4" d="M147.511-87.178h-39.6a.911.911,0,0,1-.911-.912.911.911,0,0,1,.911-.911h39.63a.912.912,0,0,1,.9.926.912.912,0,0,1-.911.9Z" transform="translate(139.746 339.655) rotate(8)" fill="#fff"/>
    <path id="Icon_material-do-not-disturb-alt" data-name="Icon material-do-not-disturb-alt" d="M9.8,3a6.8,6.8,0,1,0,6.8,6.8A6.816,6.816,0,0,0,9.8,3ZM4.359,9.8A5.453,5.453,0,0,1,9.8,4.359a5.356,5.356,0,0,1,3.33,1.155L5.514,13.126A5.356,5.356,0,0,1,4.359,9.8ZM9.8,15.232a5.356,5.356,0,0,1-3.33-1.155l7.611-7.611A5.356,5.356,0,0,1,15.232,9.8,5.453,5.453,0,0,1,9.8,15.232Z" transform="translate(299.516 262.896)" fill="#fe3f3f"/>
  </g>
</svg>
