<svg xmlns="http://www.w3.org/2000/svg" width="40.548" height="41.017" viewBox="0 0 40.548 41.017">
  <g id="그룹_10" data-name="그룹 10" transform="translate(-2150.768 879.928)">
    <path id="패스_50" data-name="패스 50" d="M2199.638-872.563l-3.124,1.8h-.008l-3.966-2.29h-.008v-.008l-3.966-2.291h-.008v.008l-3.974,2.29-3.966,2.3h-.008l-3.974,2.29,3.974,2.29,3.974,2.3-3.966,2.29h-.008l-3.974-2.29v-.008l-3.966-2.291h-.008l-3.966-2.29h-.008v-.008l-3.974-2.29-3.132-1.8a6.224,6.224,0,0,1,2.307-2.3l.826-.478h.008l3.966,2.29,3.974,2.29,3.974-2.29,3.974-2.29,3.974-2.3h.008l3.966-2.29h.008l3.966,2.29h.008l3.966,2.29v.008l.833.478A6.259,6.259,0,0,1,2199.638-872.563Z" transform="translate(-9.569)" fill="#6c63ff"/>
    <g id="그룹_9" data-name="그룹 9" transform="translate(2150.768 -871.868)">
      <path id="패스_51" data-name="패스 51" d="M2170.637-799.005v21.974a6.266,6.266,0,0,1-3.092-.818l-.049-.024-.833-.477v-18.364l-3.974-2.29v18.356l-3.966-2.291h-.008v-.008l-3.974-2.29-.825-.478c-.008-.008-.016-.008-.024-.016a6.2,6.2,0,0,1-2.282-2.29,6.29,6.29,0,0,1-.842-3.14v-15.685a6.289,6.289,0,0,1,.842-3.14l3.132,1.8v18.356l3.974,2.291v-18.348h.008l3.966,2.29h.008l3.966,2.29v.008Z" transform="translate(-2150.768 809.988)" fill="#6c63ff"/>
      <path id="패스_52" data-name="패스 52" d="M2350.066-734.564v10.133a6.289,6.289,0,0,1-.842,3.14,6.314,6.314,0,0,1-2.145,2.218,1.512,1.512,0,0,0-.154.089l-.826.477h-.008v-9.178l-3.966,2.29h-.008v.008l-3.974,2.29-3.974,2.3v9.178l-.955.542a6.258,6.258,0,0,1-3.019.777v-21.974h.008l3.966-2.29v9.178h.008l3.966-2.29.008-.008,3.966-2.291h.008l3.966-2.29h.008Z" transform="translate(-2309.519 743.256)" fill="#6c63ff"/>
    </g>
  </g>
</svg>